<svg width="238" height="92" viewBox="0 0 238 92" fill="none" xmlns="http://www.w3.org/2000/svg">
<g clip-path="url(#clip0_404_2)">
<g filter="url(#filter0_i_404_2)">
<circle cx="43.5" cy="40.5" r="27.5" stroke="#185ABD" stroke-width="20"/>
</g>
<g filter="url(#filter1_i_404_2)">
<rect x="85.0691" y="92.2051" width="30" height="20" rx="2" transform="rotate(-138 85.0691 92.2051)" fill="#41A5EE"/>
</g>
<path d="M140.9 13.416C147.708 13.416 153.657 14.7653 158.748 17.464C163.839 20.1627 167.764 23.9653 170.524 28.872C173.345 33.7173 174.756 39.3293 174.756 45.708C174.756 52.0253 173.345 57.6373 170.524 62.544C167.764 67.4507 163.808 71.2533 158.656 73.952C153.565 76.6507 147.647 78 140.9 78H116.704V13.416H140.9ZM139.888 64.384C145.837 64.384 150.468 62.7587 153.78 59.508C157.092 56.2573 158.748 51.6573 158.748 45.708C158.748 39.7587 157.092 35.128 153.78 31.816C150.468 28.504 145.837 26.848 139.888 26.848H132.436V64.384H139.888ZM206.916 78.644C202.193 78.644 197.961 77.8773 194.22 76.344C190.478 74.8107 187.473 72.5413 185.204 69.536C182.996 66.5307 181.83 62.912 181.708 58.68H198.452C198.697 61.072 199.525 62.912 200.936 64.2C202.346 65.4267 204.186 66.04 206.456 66.04C208.786 66.04 210.626 65.5187 211.976 64.476C213.325 63.372 214 61.8693 214 59.968C214 58.3733 213.448 57.0547 212.344 56.012C211.301 54.9693 209.982 54.1107 208.388 53.436C206.854 52.7613 204.646 51.9947 201.764 51.136C197.593 49.848 194.189 48.56 191.552 47.272C188.914 45.984 186.645 44.0827 184.744 41.568C182.842 39.0533 181.892 35.772 181.892 31.724C181.892 25.7133 184.069 21.0213 188.424 17.648C192.778 14.2133 198.452 12.496 205.444 12.496C212.558 12.496 218.293 14.2133 222.648 17.648C227.002 21.0213 229.333 25.744 229.64 31.816H212.62C212.497 29.7307 211.73 28.1053 210.32 26.94C208.909 25.7133 207.1 25.1 204.892 25.1C202.99 25.1 201.457 25.6213 200.292 26.664C199.126 27.6453 198.544 29.0867 198.544 30.988C198.544 33.0733 199.525 34.6987 201.488 35.864C203.45 37.0293 206.517 38.2867 210.688 39.636C214.858 41.0467 218.232 42.396 220.808 43.684C223.445 44.972 225.714 46.8427 227.616 49.296C229.517 51.7493 230.468 54.908 230.468 58.772C230.468 62.452 229.517 65.7947 227.616 68.8C225.776 71.8053 223.077 74.1973 219.52 75.976C215.962 77.7547 211.761 78.644 206.916 78.644Z" fill="black"/>
</g>
<defs>
<filter id="filter0_i_404_2" x="6" y="3" width="75" height="80" filterUnits="userSpaceOnUse" color-interpolation-filters="sRGB">
<feFlood flood-opacity="0" result="BackgroundImageFix"/>
<feBlend mode="normal" in="SourceGraphic" in2="BackgroundImageFix" result="shape"/>
<feColorMatrix in="SourceAlpha" type="matrix" values="0 0 0 0 0 0 0 0 0 0 0 0 0 0 0 0 0 0 127 0" result="hardAlpha"/>
<feOffset dy="5"/>
<feGaussianBlur stdDeviation="5"/>
<feComposite in2="hardAlpha" operator="arithmetic" k2="-1" k3="1"/>
<feColorMatrix type="matrix" values="0 0 0 0 0 0 0 0 0 0 0 0 0 0 0 0 0 0 0.25 0"/>
<feBlend mode="normal" in2="shape" result="effect1_innerShadow_404_2"/>
</filter>
<filter id="filter1_i_404_2" x="63.5992" y="58.0928" width="34.028" height="38.2877" filterUnits="userSpaceOnUse" color-interpolation-filters="sRGB">
<feFlood flood-opacity="0" result="BackgroundImageFix"/>
<feBlend mode="normal" in="SourceGraphic" in2="BackgroundImageFix" result="shape"/>
<feColorMatrix in="SourceAlpha" type="matrix" values="0 0 0 0 0 0 0 0 0 0 0 0 0 0 0 0 0 0 127 0" result="hardAlpha"/>
<feOffset dy="5"/>
<feGaussianBlur stdDeviation="5"/>
<feComposite in2="hardAlpha" operator="arithmetic" k2="-1" k3="1"/>
<feColorMatrix type="matrix" values="0 0 0 0 0 0 0 0 0 0 0 0 0 0 0 0 0 0 0.2 0"/>
<feBlend mode="normal" in2="shape" result="effect1_innerShadow_404_2"/>
</filter>
<clipPath id="clip0_404_2">
<rect width="238" height="92" fill="white"/>
</clipPath>
</defs>
</svg>
