<svg width="345" height="92" viewBox="0 0 345 92" fill="none" xmlns="http://www.w3.org/2000/svg">
<g clip-path="url(#clip0_404_2)">
<g filter="url(#filter0_i_404_2)">
<circle cx="43.5" cy="40.5" r="27.5" stroke="#185ABD" stroke-width="20"/>
</g>
<g filter="url(#filter1_i_404_2)">
<rect x="85.0691" y="92.2051" width="30" height="20" rx="2" transform="rotate(-138 85.0691 92.2051)" fill="#41A5EE"/>
</g>
<path d="M140.9 13.416C147.708 13.416 153.657 14.7653 158.748 17.464C163.839 20.1627 167.764 23.9653 170.524 28.872C173.345 33.7173 174.756 39.3293 174.756 45.708C174.756 52.0253 173.345 57.6373 170.524 62.544C167.764 67.4507 163.808 71.2533 158.656 73.952C153.565 76.6507 147.647 78 140.9 78H116.704V13.416H140.9ZM139.888 64.384C145.837 64.384 150.468 62.7587 153.78 59.508C157.092 56.2573 158.748 51.6573 158.748 45.708C158.748 39.7587 157.092 35.128 153.78 31.816C150.468 28.504 145.837 26.848 139.888 26.848H132.436V64.384H139.888ZM199.28 65.856H219.888V78H183.548V13.416H199.28V65.856ZM251.588 13.416C258.396 13.416 264.345 14.7653 269.436 17.464C274.526 20.1627 278.452 23.9653 281.212 28.872C284.033 33.7173 285.444 39.3293 285.444 45.708C285.444 52.0253 284.033 57.6373 281.212 62.544C278.452 67.4507 274.496 71.2533 269.344 73.952C264.253 76.6507 258.334 78 251.588 78H227.392V13.416H251.588ZM250.576 64.384C256.525 64.384 261.156 62.7587 264.468 59.508C267.78 56.2573 269.436 51.6573 269.436 45.708C269.436 39.7587 267.78 35.128 264.468 31.816C261.156 28.504 256.525 26.848 250.576 26.848H243.124V64.384H250.576ZM317.603 78.644C312.881 78.644 308.649 77.8773 304.907 76.344C301.166 74.8107 298.161 72.5413 295.891 69.536C293.683 66.5307 292.518 62.912 292.395 58.68H309.139C309.385 61.072 310.213 62.912 311.623 64.2C313.034 65.4267 314.874 66.04 317.143 66.04C319.474 66.04 321.314 65.5187 322.663 64.476C324.013 63.372 324.687 61.8693 324.687 59.968C324.687 58.3733 324.135 57.0547 323.031 56.012C321.989 54.9693 320.67 54.1107 319.075 53.436C317.542 52.7613 315.334 51.9947 312.451 51.136C308.281 49.848 304.877 48.56 302.239 47.272C299.602 45.984 297.333 44.0827 295.431 41.568C293.53 39.0533 292.579 35.772 292.579 31.724C292.579 25.7133 294.757 21.0213 299.111 17.648C303.466 14.2133 309.139 12.496 316.131 12.496C323.246 12.496 328.981 14.2133 333.335 17.648C337.69 21.0213 340.021 25.744 340.327 31.816H323.307C323.185 29.7307 322.418 28.1053 321.007 26.94C319.597 25.7133 317.787 25.1 315.579 25.1C313.678 25.1 312.145 25.6213 310.979 26.664C309.814 27.6453 309.231 29.0867 309.231 30.988C309.231 33.0733 310.213 34.6987 312.175 35.864C314.138 37.0293 317.205 38.2867 321.375 39.636C325.546 41.0467 328.919 42.396 331.495 43.684C334.133 44.972 336.402 46.8427 338.303 49.296C340.205 51.7493 341.155 54.908 341.155 58.772C341.155 62.452 340.205 65.7947 338.303 68.8C336.463 71.8053 333.765 74.1973 330.207 75.976C326.65 77.7547 322.449 78.644 317.603 78.644Z" fill="black"/>
</g>
<defs>
<filter id="filter0_i_404_2" x="6" y="3" width="75" height="80" filterUnits="userSpaceOnUse" color-interpolation-filters="sRGB">
<feFlood flood-opacity="0" result="BackgroundImageFix"/>
<feBlend mode="normal" in="SourceGraphic" in2="BackgroundImageFix" result="shape"/>
<feColorMatrix in="SourceAlpha" type="matrix" values="0 0 0 0 0 0 0 0 0 0 0 0 0 0 0 0 0 0 127 0" result="hardAlpha"/>
<feOffset dy="5"/>
<feGaussianBlur stdDeviation="5"/>
<feComposite in2="hardAlpha" operator="arithmetic" k2="-1" k3="1"/>
<feColorMatrix type="matrix" values="0 0 0 0 0 0 0 0 0 0 0 0 0 0 0 0 0 0 0.25 0"/>
<feBlend mode="normal" in2="shape" result="effect1_innerShadow_404_2"/>
</filter>
<filter id="filter1_i_404_2" x="63.5992" y="58.0928" width="34.028" height="38.2877" filterUnits="userSpaceOnUse" color-interpolation-filters="sRGB">
<feFlood flood-opacity="0" result="BackgroundImageFix"/>
<feBlend mode="normal" in="SourceGraphic" in2="BackgroundImageFix" result="shape"/>
<feColorMatrix in="SourceAlpha" type="matrix" values="0 0 0 0 0 0 0 0 0 0 0 0 0 0 0 0 0 0 127 0" result="hardAlpha"/>
<feOffset dy="5"/>
<feGaussianBlur stdDeviation="5"/>
<feComposite in2="hardAlpha" operator="arithmetic" k2="-1" k3="1"/>
<feColorMatrix type="matrix" values="0 0 0 0 0 0 0 0 0 0 0 0 0 0 0 0 0 0 0.2 0"/>
<feBlend mode="normal" in2="shape" result="effect1_innerShadow_404_2"/>
</filter>
<clipPath id="clip0_404_2">
<rect width="345" height="92" fill="white"/>
</clipPath>
</defs>
</svg>
